<svg width="531" height="183" viewBox="0 0 531 183" fill="none" xmlns="http://www.w3.org/2000/svg">
<path d="M50.4004 77.488L47.5204 94H0.000382803L0.480383 91.312L5.85638 90.64C6.94438 90.512 7.61638 90.256 7.87238 89.872C8.12838 89.424 8.44838 88.112 8.83238 85.936L17.4724 36.784C17.8564 34.608 17.9844 33.328 17.8564 32.944C17.7284 32.496 17.1844 32.208 16.2244 32.08L11.0404 31.408L11.5204 28.72H58.0804L55.2004 45.232H52.5124L51.2644 34.576C51.2004 33.808 51.0724 33.264 50.8804 32.944C50.7524 32.56 50.3684 32.336 49.7284 32.272C49.1524 32.144 48.0964 32.08 46.5604 32.08H29.8564L25.0564 59.344H36.0004C37.5364 59.344 38.6244 59.312 39.2644 59.248C39.9044 59.12 40.3524 58.896 40.6084 58.576C40.9284 58.192 41.2484 57.616 41.5684 56.848L45.1204 49.072H47.8084L43.5844 72.976H40.8964L40.1284 65.2C40.0644 64.048 39.8084 63.344 39.3604 63.088C38.9124 62.832 37.5684 62.704 35.3284 62.704H24.4804L19.4884 90.64H37.1524C38.6884 90.64 39.7764 90.608 40.4164 90.544C41.0564 90.416 41.5364 90.192 41.8564 89.872C42.1764 89.488 42.4964 88.912 42.8164 88.144L47.7124 77.488H50.4004ZM104.116 94.48C101.3 94.48 99.0281 93.68 97.3001 92.08C95.6361 90.416 94.7401 88.08 94.6121 85.072C92.0521 88.464 89.3641 90.96 86.5481 92.56C83.7321 94.16 80.8201 94.96 77.8121 94.96C73.4601 94.96 70.1961 93.456 68.0201 90.448C65.9081 87.376 65.3321 83.12 66.2921 77.68L70.5161 53.392C70.9001 51.216 71.0281 49.936 70.9001 49.552C70.7721 49.104 70.1961 48.816 69.1721 48.688L63.9881 48.016L64.4681 45.328H82.9961L77.3321 77.584C76.5641 82 76.5321 85.232 77.2361 87.28C77.9401 89.264 79.1881 90.256 80.9801 90.256C82.1321 90.256 83.4761 89.904 85.0121 89.2C86.6121 88.432 88.3081 87.12 90.1001 85.264C91.9561 83.344 93.7801 80.624 95.5721 77.104L101.236 45.328H112.276L106.228 79.6C105.396 84.08 105.012 87.056 105.076 88.528C105.14 89.936 105.652 90.64 106.612 90.64C107.508 90.64 108.468 90.128 109.492 89.104C110.516 88.08 111.444 86.352 112.276 83.92L116.02 86.032C114.612 88.976 112.916 91.12 110.932 92.464C108.948 93.808 106.676 94.48 104.116 94.48ZM176.918 86.032C175.51 88.976 173.814 91.12 171.83 92.464C169.846 93.808 167.574 94.48 165.014 94.48C161.494 94.48 158.87 93.264 157.142 90.832C155.414 88.336 154.998 84.848 155.894 80.368L159.638 61.744C160.534 57.328 160.566 54.128 159.734 52.144C158.902 50.096 157.494 49.072 155.51 49.072C154.358 49.072 152.95 49.456 151.286 50.224C149.622 50.928 147.83 52.24 145.91 54.16C144.054 56.08 142.198 58.832 140.342 62.416L134.774 94H123.734L130.838 53.392C131.222 51.216 131.35 49.936 131.222 49.552C131.094 49.104 130.55 48.816 129.59 48.688L124.406 48.016L124.886 45.328H142.742L141.11 54.736C143.734 51.152 146.518 48.528 149.462 46.864C152.47 45.2 155.542 44.368 158.678 44.368C163.222 44.368 166.614 45.872 168.854 48.88C171.158 51.888 171.766 56.144 170.678 61.648L167.126 79.6C166.294 84.016 165.878 86.96 165.878 88.432C165.942 89.904 166.486 90.64 167.51 90.64C168.406 90.64 169.366 90.128 170.39 89.104C171.414 88.08 172.342 86.352 173.174 83.92L176.918 86.032ZM216.341 91.312L215.861 94H196.949L197.429 91.312L202.805 90.64C203.509 90.512 204.053 90.384 204.437 90.256C204.821 90.064 205.173 89.648 205.493 89.008C205.877 88.368 206.421 87.344 207.125 85.936L235.541 28.72H243.797L252.149 85.936C252.469 88.112 252.757 89.424 253.013 89.872C253.269 90.256 253.845 90.512 254.741 90.64L259.925 91.312L259.445 94H233.333L233.813 91.312L239.189 90.64C240.277 90.512 240.885 90.256 241.013 89.872C241.205 89.424 241.141 88.112 240.821 85.936L239.189 74.032H217.205L211.253 85.936C210.229 88.112 209.717 89.424 209.717 89.872C209.717 90.256 210.197 90.512 211.157 90.64L216.341 91.312ZM218.837 70.672H238.805L234.581 39.184L218.837 70.672ZM313.138 91.312L312.658 94H286.354L286.834 91.312L292.21 90.64C293.298 90.512 293.97 90.256 294.226 89.872C294.482 89.424 294.802 88.112 295.186 85.936L303.826 36.784C304.21 34.608 304.338 33.328 304.21 32.944C304.082 32.496 303.538 32.208 302.578 32.08L297.394 31.408L297.874 28.72H324.178L323.698 31.408L318.322 32.08C317.298 32.208 316.626 32.496 316.306 32.944C316.05 33.328 315.73 34.608 315.346 36.784L311.41 59.344H336.658L340.594 36.784C340.978 34.608 341.106 33.328 340.978 32.944C340.85 32.496 340.306 32.208 339.346 32.08L334.162 31.408L334.642 28.72H360.946L360.466 31.408L355.09 32.08C354.066 32.208 353.394 32.496 353.074 32.944C352.818 33.328 352.498 34.608 352.114 36.784L343.474 85.936C343.09 88.112 342.962 89.424 343.09 89.872C343.218 90.256 343.762 90.512 344.722 90.64L349.906 91.312L349.426 94H323.122L323.602 91.312L328.978 90.64C330.066 90.512 330.738 90.256 330.994 89.872C331.25 89.424 331.57 88.112 331.954 85.936L335.986 62.704H310.834L306.706 85.936C306.322 88.112 306.194 89.424 306.322 89.872C306.45 90.256 306.994 90.512 307.954 90.64L313.138 91.312ZM401.762 94.48C399.138 94.48 396.994 93.776 395.33 92.368C393.73 90.896 392.77 88.816 392.45 86.128C390.402 89.52 388.162 91.856 385.73 93.136C383.298 94.352 380.802 94.96 378.242 94.96C374.338 94.96 371.17 93.776 368.738 91.408C366.37 89.04 364.77 85.84 363.938 81.808C363.17 77.776 363.234 73.328 364.13 68.464L364.514 66.352C365.41 61.552 366.978 57.52 369.218 54.256C371.458 50.992 374.114 48.528 377.186 46.864C380.322 45.2 383.618 44.368 387.074 44.368C392.002 44.368 395.746 46.032 398.306 49.36C399.778 48.976 401.282 48.464 402.818 47.824C404.418 47.184 405.922 46.352 407.33 45.328H409.922L403.874 79.6C403.042 84.08 402.658 87.056 402.722 88.528C402.786 89.936 403.298 90.64 404.258 90.64C405.154 90.64 406.114 90.128 407.138 89.104C408.162 88.08 409.09 86.352 409.922 83.92L413.666 86.032C412.258 88.976 410.562 91.12 408.578 92.464C406.594 93.808 404.322 94.48 401.762 94.48ZM375.65 70.192C374.434 77.232 374.338 82.48 375.362 85.936C376.45 89.328 378.21 91.024 380.642 91.024C381.538 91.024 382.626 90.736 383.906 90.16C385.25 89.52 386.69 88.304 388.226 86.512C389.826 84.656 391.426 81.936 393.026 78.352L397.25 54.16C396.226 51.92 394.882 50.384 393.218 49.552C391.618 48.656 389.986 48.208 388.322 48.208C384.994 48.208 382.402 49.712 380.546 52.72C378.754 55.728 377.41 59.888 376.514 65.2L375.65 70.192ZM459.258 94.48C456.442 94.48 454.202 93.648 452.538 91.984C450.874 90.32 449.978 87.984 449.85 84.976C447.674 88.752 445.37 91.376 442.938 92.848C440.57 94.256 438.074 94.96 435.45 94.96C431.61 94.96 428.474 93.776 426.042 91.408C423.674 89.04 422.074 85.84 421.242 81.808C420.474 77.776 420.538 73.328 421.434 68.464L421.818 66.352C422.714 61.552 424.282 57.52 426.522 54.256C428.762 50.992 431.45 48.528 434.586 46.864C437.722 45.2 441.018 44.368 444.474 44.368C449.274 44.368 452.986 45.936 455.61 49.072L458.778 31.024C459.162 28.848 459.29 27.568 459.162 27.184C459.034 26.736 458.49 26.448 457.53 26.32L452.442 25.648L452.826 22.96H471.354L461.37 79.6C460.538 84.08 460.154 87.056 460.218 88.528C460.282 89.936 460.794 90.64 461.754 90.64C462.65 90.64 463.61 90.128 464.634 89.104C465.658 88.08 466.586 86.352 467.418 83.92L471.162 86.032C469.754 88.976 468.058 91.12 466.074 92.464C464.09 93.808 461.818 94.48 459.258 94.48ZM432.954 70.192C431.738 77.232 431.642 82.48 432.666 85.936C433.754 89.328 435.546 91.024 438.042 91.024C438.938 91.024 440.058 90.64 441.402 89.872C442.746 89.104 444.218 87.6 445.818 85.36C447.482 83.12 449.21 79.856 451.002 75.568L454.746 54.16C453.658 51.92 452.282 50.384 450.618 49.552C449.018 48.656 447.386 48.208 445.722 48.208C442.33 48.208 439.706 49.712 437.85 52.72C436.058 55.728 434.714 59.888 433.818 65.2L432.954 70.192ZM516.651 94.48C514.027 94.48 511.883 93.776 510.219 92.368C508.619 90.896 507.659 88.816 507.339 86.128C505.291 89.52 503.051 91.856 500.619 93.136C498.187 94.352 495.691 94.96 493.131 94.96C489.227 94.96 486.059 93.776 483.627 91.408C481.259 89.04 479.659 85.84 478.827 81.808C478.059 77.776 478.123 73.328 479.019 68.464L479.403 66.352C480.299 61.552 481.867 57.52 484.107 54.256C486.347 50.992 489.003 48.528 492.075 46.864C495.211 45.2 498.507 44.368 501.963 44.368C506.891 44.368 510.635 46.032 513.195 49.36C514.667 48.976 516.171 48.464 517.707 47.824C519.307 47.184 520.811 46.352 522.219 45.328H524.811L518.763 79.6C517.931 84.08 517.547 87.056 517.611 88.528C517.675 89.936 518.187 90.64 519.147 90.64C520.043 90.64 521.003 90.128 522.027 89.104C523.051 88.08 523.979 86.352 524.811 83.92L528.555 86.032C527.147 88.976 525.451 91.12 523.467 92.464C521.483 93.808 519.211 94.48 516.651 94.48ZM490.539 70.192C489.323 77.232 489.227 82.48 490.251 85.936C491.339 89.328 493.099 91.024 495.531 91.024C496.427 91.024 497.515 90.736 498.795 90.16C500.139 89.52 501.579 88.304 503.115 86.512C504.715 84.656 506.315 81.936 507.915 78.352L512.139 54.16C511.115 51.92 509.771 50.384 508.107 49.552C506.507 48.656 504.875 48.208 503.211 48.208C499.883 48.208 497.291 49.712 495.435 52.72C493.643 55.728 492.299 59.888 491.403 65.2L490.539 70.192Z" fill="black"/>
<path d="M189.392 127.75C190.292 127.75 191.376 127.733 192.642 127.7C193.909 127.667 194.976 127.65 195.842 127.65C198.176 127.65 200.042 127.9 201.442 128.4C202.876 128.867 203.959 129.483 204.692 130.25C205.426 131.017 205.926 131.85 206.192 132.75C206.459 133.65 206.592 134.517 206.592 135.35C206.592 136.683 206.109 137.95 205.142 139.15C204.209 140.35 203.109 141.267 201.842 141.9V142C204.009 142.633 205.826 143.667 207.292 145.1C208.792 146.5 209.542 148.4 209.542 150.8C209.542 151.867 209.342 152.95 208.942 154.05C208.576 155.117 207.926 156.1 206.992 157C206.059 157.9 204.776 158.633 203.142 159.2C201.509 159.733 199.442 160 196.942 160H183.142C182.976 159.833 182.892 159.6 182.892 159.3C182.892 158.9 182.976 158.617 183.142 158.45C184.309 158.383 185.209 158.267 185.842 158.1C186.476 157.933 186.909 157.533 187.142 156.9C187.376 156.267 187.492 155.267 187.492 153.9V133.85C187.492 132.45 187.376 131.45 187.142 130.85C186.909 130.217 186.476 129.817 185.842 129.65C185.209 129.45 184.309 129.333 183.142 129.3C182.976 129.133 182.892 128.867 182.892 128.5C182.892 128.1 182.976 127.817 183.142 127.65C184.109 127.683 185.159 127.717 186.292 127.75C187.459 127.75 188.492 127.75 189.392 127.75ZM191.742 132.5V141.7H195.442C197.509 141.7 199.209 141.283 200.542 140.45C201.876 139.583 202.542 138.083 202.542 135.95C202.542 134.25 202.192 132.917 201.492 131.95C200.826 130.983 199.992 130.317 198.992 129.95C197.992 129.55 197.026 129.35 196.092 129.35C194.659 129.35 193.626 129.433 192.992 129.6C192.392 129.733 192.026 130.033 191.892 130.5C191.792 130.933 191.742 131.6 191.742 132.5ZM191.742 143.4V154.1C191.742 155.633 191.992 156.75 192.492 157.45C193.026 158.117 194.159 158.45 195.892 158.45C198.426 158.45 200.326 158.15 201.592 157.55C202.892 156.917 203.759 156.1 204.192 155.1C204.659 154.067 204.892 152.95 204.892 151.75C204.892 150.25 204.559 148.867 203.892 147.6C203.226 146.333 202.176 145.317 200.742 144.55C199.342 143.783 197.492 143.4 195.192 143.4H191.742ZM219.619 142.1C219.619 142.233 219.669 142.35 219.769 142.45C219.902 142.55 220.035 142.467 220.169 142.2C220.735 141.233 221.502 140.3 222.469 139.4C223.469 138.5 224.552 138.05 225.719 138.05C226.785 138.05 227.552 138.333 228.019 138.9C228.485 139.467 228.719 139.983 228.719 140.45C228.719 141.083 228.469 141.667 227.969 142.2C227.502 142.7 226.969 142.95 226.369 142.95C225.935 142.95 225.569 142.817 225.269 142.55C224.969 142.283 224.735 142.033 224.569 141.8C224.369 141.533 224.152 141.367 223.919 141.3C223.719 141.2 223.502 141.15 223.269 141.15C223.069 141.15 222.819 141.3 222.519 141.6C222.252 141.9 221.969 142.25 221.669 142.65C221.402 143.017 221.169 143.333 220.969 143.6C220.669 144.033 220.385 144.533 220.119 145.1C219.885 145.667 219.769 146.283 219.769 146.95V153.9C219.769 155.267 219.869 156.283 220.069 156.95C220.269 157.583 220.652 158 221.219 158.2C221.819 158.367 222.702 158.45 223.869 158.45C224.002 158.583 224.069 158.867 224.069 159.3C224.069 159.7 224.002 159.967 223.869 160.1C223.002 160.1 222.019 160.083 220.919 160.05C219.852 160.017 218.819 160 217.819 160C216.819 160 215.835 160.017 214.869 160.05C213.902 160.083 212.985 160.1 212.119 160.1C211.952 159.933 211.869 159.667 211.869 159.3C211.869 158.9 211.952 158.617 212.119 158.45C213.152 158.45 213.935 158.367 214.469 158.2C215.002 158 215.352 157.583 215.519 156.95C215.719 156.283 215.819 155.267 215.819 153.9V144.15C215.819 142.683 215.619 141.75 215.219 141.35C214.819 140.95 213.935 140.75 212.569 140.75C212.535 140.583 212.502 140.35 212.469 140.05C212.435 139.717 212.435 139.483 212.469 139.35C214.202 139.117 215.485 138.883 216.319 138.65C217.152 138.417 217.919 138.167 218.619 137.9C218.819 137.9 218.952 137.95 219.019 138.05C219.119 138.117 219.185 138.2 219.219 138.3C219.319 138.567 219.402 139.017 219.469 139.65C219.569 140.283 219.619 141.1 219.619 142.1ZM253.369 148.8C253.369 150.833 252.952 152.7 252.119 154.4C251.285 156.1 250.069 157.467 248.469 158.5C246.902 159.5 245.002 160 242.769 160C240.402 160 238.435 159.467 236.869 158.4C235.335 157.3 234.185 155.933 233.419 154.3C232.652 152.633 232.269 150.95 232.269 149.25C232.269 147.083 232.702 145.117 233.569 143.35C234.435 141.583 235.652 140.183 237.219 139.15C238.819 138.083 240.702 137.55 242.869 137.55C244.769 137.55 246.385 137.883 247.719 138.55C249.085 139.217 250.169 140.117 250.969 141.25C251.802 142.35 252.402 143.567 252.769 144.9C253.169 146.2 253.369 147.5 253.369 148.8ZM242.119 139.3C240.619 139.3 239.469 139.733 238.669 140.6C237.869 141.467 237.319 142.567 237.019 143.9C236.719 145.233 236.569 146.633 236.569 148.1C236.569 149.067 236.685 150.133 236.919 151.3C237.152 152.467 237.535 153.583 238.069 154.65C238.602 155.683 239.302 156.55 240.169 157.25C241.069 157.917 242.169 158.25 243.469 158.25C244.269 158.25 245.102 158.033 245.969 157.6C246.835 157.167 247.569 156.383 248.169 155.25C248.769 154.117 249.069 152.5 249.069 150.4C249.069 146.8 248.452 144.05 247.219 142.15C245.985 140.25 244.285 139.3 242.119 139.3ZM265.084 139.5C263.684 139.6 262.984 140.033 262.984 140.8C262.984 141.033 263.034 141.317 263.134 141.65C263.267 141.983 263.417 142.383 263.584 142.85L267.584 153.15C267.884 153.95 268.117 154.35 268.284 154.35C268.384 154.35 268.617 153.917 268.984 153.05L272.484 144.2L272.184 143.4C271.75 142.3 271.284 141.417 270.784 140.75C270.317 140.05 269.5 139.633 268.334 139.5C268.167 139.333 268.084 139.067 268.084 138.7C268.084 138.3 268.167 138.017 268.334 137.85C269.1 137.883 269.867 137.917 270.634 137.95C271.4 137.95 272.1 137.95 272.734 137.95C273.5 137.95 274.334 137.95 275.234 137.95C276.167 137.917 277 137.883 277.734 137.85C277.9 138.017 277.984 138.3 277.984 138.7C277.984 139.067 277.9 139.333 277.734 139.5C276.9 139.567 276.3 139.683 275.934 139.85C275.567 140.017 275.384 140.3 275.384 140.7C275.384 140.9 275.434 141.167 275.534 141.5C275.634 141.8 275.75 142.15 275.884 142.55L280.234 153.5C280.434 154.033 280.6 154.3 280.734 154.3C280.867 154.3 281.067 153.967 281.334 153.3L285.534 142.9C285.667 142.567 285.784 142.25 285.884 141.95C285.984 141.65 286.034 141.383 286.034 141.15C286.034 140.683 285.817 140.317 285.384 140.05C284.95 139.75 284.15 139.567 282.984 139.5C282.85 139.367 282.784 139.1 282.784 138.7C282.784 138.267 282.85 137.983 282.984 137.85C283.75 137.883 284.6 137.917 285.534 137.95C286.5 137.95 287.35 137.95 288.084 137.95C288.85 137.95 289.517 137.95 290.084 137.95C290.65 137.917 291.184 137.883 291.684 137.85C291.817 137.983 291.884 138.267 291.884 138.7C291.884 139.1 291.817 139.367 291.684 139.5C290.417 139.567 289.5 139.933 288.934 140.6C288.367 141.233 287.884 142.067 287.484 143.1L280.934 158.95C280.667 159.65 280.284 160 279.784 160C279.284 160 278.884 159.667 278.584 159L273.434 146.6L268.384 158.9C268.05 159.633 267.65 160 267.184 160C266.684 160 266.284 159.667 265.984 159L259.434 142.85C259.1 141.983 258.767 141.333 258.434 140.9C258.134 140.433 257.767 140.1 257.334 139.9C256.9 139.7 256.284 139.567 255.484 139.5C255.35 139.367 255.284 139.1 255.284 138.7C255.284 138.267 255.35 137.983 255.484 137.85C256.15 137.883 256.834 137.917 257.534 137.95C258.267 137.95 259.1 137.95 260.034 137.95C260.934 137.95 261.817 137.95 262.684 137.95C263.55 137.917 264.35 137.883 265.084 137.85C265.217 137.983 265.284 138.267 265.284 138.7C265.284 139.1 265.217 139.367 265.084 139.5ZM314.662 161.2C313.462 161.2 312.362 160.867 311.362 160.2C310.396 159.567 309.912 158.683 309.912 157.55C309.912 157.183 309.929 156.8 309.962 156.4C310.029 155.967 310.129 155.533 310.262 155.1C311.096 151.933 312.396 149.367 314.162 147.4C315.929 145.4 318.129 143.733 320.762 142.4V141.6C320.696 141.533 320.612 141.483 320.512 141.45C320.446 141.383 320.379 141.317 320.312 141.25C319.979 140.983 319.662 140.75 319.362 140.55C319.096 140.317 318.829 140.1 318.562 139.9C317.829 139.333 317.096 138.817 316.362 138.35C315.662 137.883 314.979 137.383 314.312 136.85C314.279 136.817 314.262 136.8 314.262 136.8C314.296 136.867 314.296 136.883 314.262 136.85V136.8L314.362 136C314.729 135.467 315.062 135 315.362 134.6C315.696 134.167 315.979 133.783 316.212 133.45C317.246 132.017 318.246 130.8 319.212 129.8C320.212 128.767 321.396 127.567 322.762 126.2L324.612 124.35H324.662L325.162 123.85C325.529 123.517 325.946 123.35 326.412 123.35C326.612 123.35 326.879 123.383 327.212 123.45C327.579 123.483 327.979 123.583 328.412 123.75C328.879 123.883 329.362 124.05 329.862 124.25C330.396 124.45 330.962 124.667 331.562 124.9C332.062 125.1 332.396 125.35 332.562 125.65C332.729 125.95 332.812 126.433 332.812 127.1C332.812 130.867 331.262 134.683 328.162 138.55L328.262 139.25C329.262 140.083 330.162 140.867 330.962 141.6C331.762 142.3 332.629 143.083 333.562 143.95L334.312 143.85C334.679 143.35 335.012 142.9 335.312 142.5C335.612 142.067 335.879 141.667 336.112 141.3C336.979 140.1 337.712 138.917 338.312 137.75C338.946 136.583 339.579 135.25 340.212 133.75L343.062 133.3C342.729 134.3 342.329 135.183 341.862 135.95C341.429 136.717 340.929 137.533 340.362 138.4C340.329 138.433 340.312 138.467 340.312 138.5C340.312 138.5 340.346 138.483 340.412 138.45C340.212 138.817 340.012 139.1 339.812 139.3C339.646 139.5 339.429 139.767 339.162 140.1C338.629 140.733 338.146 141.333 337.712 141.9C337.279 142.433 336.729 143.117 336.062 143.95L336.012 144.05L335.712 144.5C335.646 144.6 335.579 144.683 335.512 144.75C335.479 144.817 335.429 144.883 335.362 144.95V145.55L343.762 154.6L343.712 155L339.062 160.7L338.612 160.8C338.279 160.367 337.996 159.983 337.762 159.65C337.562 159.317 337.296 158.95 336.962 158.55C336.429 157.95 335.912 157.35 335.412 156.75C334.946 156.117 334.379 155.45 333.712 154.75C333.279 154.217 332.846 153.667 332.412 153.1C332.012 152.533 331.579 151.967 331.112 151.4H330.412C329.512 152.233 328.429 153.2 327.162 154.3C325.929 155.4 324.579 156.483 323.112 157.55C321.679 158.583 320.229 159.45 318.762 160.15C317.296 160.85 315.929 161.2 314.662 161.2ZM320.712 132.7C320.712 132.733 320.712 132.733 320.712 132.7C320.746 132.667 320.762 132.683 320.762 132.75L320.962 133.1C321.229 133.3 321.479 133.517 321.712 133.75C321.979 133.95 322.212 134.133 322.412 134.3C322.746 134.533 322.962 134.7 323.062 134.8C323.162 134.867 323.379 135.033 323.712 135.3C324.279 135.733 324.779 136.167 325.212 136.6C325.679 137 326.212 137.467 326.812 138L327.562 137.85C327.929 137.25 328.212 136.75 328.412 136.35C328.646 135.917 328.829 135.55 328.962 135.25C329.229 134.617 329.362 134.05 329.362 133.55C329.362 132.85 329.196 132.217 328.862 131.65C328.462 130.783 327.829 130.067 326.962 129.5C326.129 128.9 325.096 128.6 323.862 128.6C322.962 128.6 322.146 128.883 321.412 129.45C320.712 129.983 320.362 130.7 320.362 131.6C320.362 131.833 320.396 132.033 320.462 132.2C320.562 132.333 320.646 132.5 320.712 132.7ZM328.912 149.5L323.062 143.5L322.562 143.4C321.529 143.833 320.596 144.317 319.762 144.85C318.962 145.35 318.329 145.883 317.862 146.45C316.862 147.55 316.362 148.867 316.362 150.4C316.362 150.9 316.462 151.4 316.662 151.9C316.929 152.5 317.346 153.083 317.912 153.65C318.512 154.217 319.229 154.5 320.062 154.5H320.162C320.396 154.5 320.712 154.45 321.112 154.35C321.812 154.217 322.529 154.033 323.262 153.8C323.996 153.567 324.629 153.283 325.162 152.95C325.962 152.583 326.612 152.2 327.112 151.8C327.612 151.367 328.212 150.833 328.912 150.2V149.5ZM404.073 131.75C404.173 131.45 404.223 131.167 404.223 130.9C404.223 130.233 403.857 129.817 403.123 129.65C402.423 129.483 401.64 129.367 400.773 129.3C400.64 129.167 400.573 128.9 400.573 128.5C400.573 128.067 400.64 127.783 400.773 127.65C401.773 127.683 402.773 127.717 403.773 127.75C404.807 127.75 405.64 127.75 406.273 127.75C406.94 127.75 407.64 127.75 408.373 127.75C409.14 127.717 409.89 127.683 410.623 127.65C410.79 127.817 410.873 128.1 410.873 128.5C410.873 128.867 410.79 129.133 410.623 129.3C409.257 129.367 408.273 129.683 407.673 130.25C407.107 130.783 406.657 131.483 406.323 132.35L396.273 159.3C396.14 159.667 395.973 159.967 395.773 160.2C395.607 160.467 395.39 160.6 395.123 160.6C394.823 160.6 394.59 160.483 394.423 160.25C394.29 160.017 394.14 159.683 393.973 159.25L388.223 142.65C387.89 141.717 387.657 141.25 387.523 141.25C387.39 141.25 387.273 141.333 387.173 141.5C387.073 141.667 386.907 142 386.673 142.5L379.223 159.25C379.057 159.683 378.873 160.017 378.673 160.25C378.507 160.483 378.257 160.6 377.923 160.6C377.657 160.6 377.44 160.467 377.273 160.2C377.107 159.967 376.957 159.65 376.823 159.25L367.423 132.2C367.123 131.3 366.84 130.667 366.573 130.3C366.307 129.9 365.973 129.65 365.573 129.55C365.207 129.417 364.64 129.333 363.873 129.3C363.673 129.1 363.573 128.833 363.573 128.5C363.573 128.133 363.673 127.85 363.873 127.65C364.607 127.683 365.34 127.717 366.073 127.75C366.84 127.75 367.657 127.75 368.523 127.75C369.49 127.75 370.49 127.75 371.523 127.75C372.557 127.717 373.49 127.683 374.323 127.65C374.49 127.817 374.573 128.1 374.573 128.5C374.573 128.867 374.49 129.133 374.323 129.3C373.59 129.333 372.957 129.433 372.423 129.6C371.923 129.733 371.673 130.083 371.673 130.65C371.673 130.85 371.723 131.1 371.823 131.4L379.123 153.5L379.373 153.55L385.823 138.9C386.123 138.167 386.273 137.583 386.273 137.15C386.273 136.917 386.24 136.683 386.173 136.45C386.107 136.183 386.023 135.9 385.923 135.6L384.773 132.3C384.54 131.633 384.107 130.983 383.473 130.35C382.873 129.717 381.907 129.367 380.573 129.3C380.44 129.167 380.373 128.9 380.373 128.5C380.373 128.067 380.44 127.783 380.573 127.65C381.373 127.683 382.19 127.717 383.023 127.75C383.89 127.75 384.74 127.75 385.573 127.75C386.573 127.75 387.607 127.75 388.673 127.75C389.74 127.717 390.79 127.683 391.823 127.65C391.99 127.817 392.073 128.1 392.073 128.5C392.073 128.867 391.99 129.133 391.823 129.3C391.123 129.333 390.473 129.45 389.873 129.65C389.273 129.817 388.973 130.283 388.973 131.05C388.973 131.317 389.057 131.733 389.223 132.3L396.073 153.4L396.273 153.45L404.073 131.75ZM417.776 141.25C417.776 141.783 417.843 142.117 417.976 142.25C418.109 142.383 418.176 142.683 418.176 143.15C418.176 143.483 417.959 143.85 417.526 144.25C417.126 144.65 416.543 144.85 415.776 144.85C414.643 144.85 414.076 144.25 414.076 143.05C414.076 142.083 414.476 141.183 415.276 140.35C416.076 139.517 417.093 138.833 418.326 138.3C419.593 137.767 420.909 137.5 422.276 137.5C423.509 137.5 424.709 137.717 425.876 138.15C427.043 138.55 427.993 139.367 428.726 140.6C429.493 141.8 429.876 143.583 429.876 145.95V153.3C429.876 154.433 429.943 155.433 430.076 156.3C430.209 157.133 430.643 157.55 431.376 157.55C431.676 157.55 432.009 157.45 432.376 157.25C432.743 157.05 433.009 156.883 433.176 156.75C433.476 156.917 433.693 157.117 433.826 157.35C433.959 157.55 434.043 157.8 434.076 158.1C433.543 158.6 432.843 159.033 431.976 159.4C431.143 159.767 430.243 159.95 429.276 159.95C428.043 159.95 427.226 159.667 426.826 159.1C426.426 158.5 426.143 157.817 425.976 157.05H425.876L424.876 157.85C423.776 158.683 422.793 159.25 421.926 159.55C421.093 159.817 420.243 159.95 419.376 159.95C417.643 159.95 416.159 159.567 414.926 158.8C413.693 158 413.076 156.583 413.076 154.55C413.076 152.85 413.859 151.367 415.426 150.1C416.993 148.833 418.976 147.9 421.376 147.3L425.676 146.25C425.743 146.217 425.809 146.15 425.876 146.05C425.943 145.95 425.976 145.817 425.976 145.65C425.976 143.75 425.743 142.35 425.276 141.45C424.843 140.517 424.309 139.9 423.676 139.6C423.043 139.3 422.443 139.15 421.876 139.15C420.943 139.15 420.026 139.3 419.126 139.6C418.226 139.9 417.776 140.45 417.776 141.25ZM425.976 147.8L421.976 148.85C420.143 149.317 418.893 150.067 418.226 151.1C417.593 152.133 417.276 153.217 417.276 154.35C417.276 155.117 417.559 155.9 418.126 156.7C418.726 157.5 419.643 157.9 420.876 157.9C421.576 157.9 422.326 157.667 423.126 157.2C423.926 156.733 424.643 156.233 425.276 155.7C425.476 155.533 425.643 155.367 425.776 155.2C425.909 155 425.976 154.733 425.976 154.4V147.8ZM445.669 143.2L447.969 146.6C448.169 146.9 448.336 147.05 448.469 147.05C448.603 147.05 448.753 146.933 448.919 146.7L452.169 142.15C452.603 141.583 452.819 141.117 452.819 140.75C452.819 140.483 452.653 140.333 452.319 140.3C452.019 140.233 451.569 140.167 450.969 140.1C450.836 139.967 450.769 139.7 450.769 139.3C450.769 138.867 450.836 138.583 450.969 138.45C451.636 138.45 452.319 138.467 453.019 138.5C453.719 138.533 454.436 138.55 455.169 138.55C455.936 138.55 456.603 138.533 457.169 138.5C457.769 138.467 458.319 138.45 458.819 138.45C458.986 138.617 459.069 138.9 459.069 139.3C459.069 139.667 458.986 139.933 458.819 140.1C457.886 140.1 457.069 140.267 456.369 140.6C455.703 140.933 454.903 141.683 453.969 142.85L449.769 148.2C449.569 148.433 449.569 148.683 449.769 148.95L454.269 155.3C454.936 156.233 455.503 156.933 455.969 157.4C456.436 157.833 456.919 158.117 457.419 158.25C457.919 158.383 458.536 158.45 459.269 158.45C459.403 158.583 459.469 158.867 459.469 159.3C459.469 159.7 459.403 159.967 459.269 160.1C458.669 160.1 458.019 160.083 457.319 160.05C456.619 160.017 455.786 160 454.819 160C453.919 160 453.053 160.017 452.219 160.05C451.419 160.083 450.636 160.1 449.869 160.1C449.736 159.967 449.669 159.7 449.669 159.3C449.669 158.867 449.736 158.583 449.869 158.45C450.336 158.383 450.719 158.317 451.019 158.25C451.353 158.183 451.519 158 451.519 157.7C451.519 157.333 451.186 156.7 450.519 155.8L447.619 151.8C447.486 151.6 447.353 151.5 447.219 151.5C447.086 151.467 446.919 151.6 446.719 151.9L443.569 156.45C443.169 157.05 442.969 157.483 442.969 157.75C442.969 158.217 443.536 158.45 444.669 158.45C444.803 158.583 444.869 158.867 444.869 159.3C444.869 159.7 444.803 159.967 444.669 160.1C444.036 160.1 443.369 160.083 442.669 160.05C441.969 160.017 441.236 160 440.469 160C439.736 160 439.069 160 438.469 160C437.903 160.033 437.369 160.067 436.869 160.1C436.736 159.967 436.669 159.7 436.669 159.3C436.669 158.867 436.736 158.583 436.869 158.45C437.469 158.417 438.003 158.35 438.469 158.25C438.936 158.117 439.419 157.867 439.919 157.5C440.453 157.1 441.053 156.483 441.719 155.65L445.919 150.25C446.086 150.083 446.069 149.833 445.869 149.5L441.519 143.15C440.819 142.117 440.103 141.367 439.369 140.9C438.669 140.433 437.886 140.167 437.019 140.1C436.853 139.933 436.769 139.667 436.769 139.3C436.769 138.9 436.853 138.617 437.019 138.45C437.686 138.483 438.386 138.517 439.119 138.55C439.853 138.55 440.586 138.55 441.319 138.55C442.086 138.55 442.953 138.55 443.919 138.55C444.886 138.517 445.703 138.483 446.369 138.45C446.503 138.583 446.569 138.867 446.569 139.3C446.569 139.7 446.503 139.967 446.369 140.1C445.669 140.167 445.136 140.233 444.769 140.3C444.436 140.333 444.269 140.483 444.269 140.75C444.269 140.817 444.353 141.017 444.519 141.35C444.719 141.683 444.919 142.033 445.119 142.4C445.353 142.733 445.536 143 445.669 143.2ZM465.521 130.05C465.521 129.45 465.804 128.9 466.371 128.4C466.937 127.9 467.521 127.65 468.121 127.65C468.821 127.65 469.387 127.933 469.821 128.5C470.287 129.067 470.521 129.65 470.521 130.25C470.521 130.783 470.254 131.317 469.721 131.85C469.221 132.383 468.621 132.65 467.921 132.65C467.321 132.65 466.771 132.383 466.271 131.85C465.771 131.283 465.521 130.683 465.521 130.05ZM470.121 153.9C470.121 155.267 470.204 156.267 470.371 156.9C470.537 157.5 470.871 157.9 471.371 158.1C471.904 158.267 472.687 158.383 473.721 158.45C473.854 158.65 473.921 158.933 473.921 159.3C473.921 159.633 473.854 159.9 473.721 160.1C472.887 160.067 471.987 160.033 471.021 160C470.087 160 469.121 160 468.121 160C467.121 160 466.154 160 465.221 160C464.287 160.033 463.387 160.067 462.521 160.1C462.387 159.9 462.321 159.633 462.321 159.3C462.321 158.933 462.387 158.65 462.521 158.45C463.554 158.35 464.321 158.217 464.821 158.05C465.354 157.883 465.704 157.5 465.871 156.9C466.037 156.267 466.121 155.267 466.121 153.9V144.15C466.121 143.183 466.037 142.483 465.871 142.05C465.737 141.583 465.437 141.267 464.971 141.1C464.504 140.9 463.821 140.767 462.921 140.7C462.887 140.533 462.854 140.3 462.821 140C462.787 139.7 462.787 139.483 462.821 139.35C464.521 139.117 465.904 138.883 466.971 138.65C468.037 138.417 468.921 138.167 469.621 137.9C470.087 137.9 470.321 138.017 470.321 138.25C470.321 138.25 470.304 138.55 470.271 139.15C470.237 139.75 470.204 140.5 470.171 141.4C470.137 142.267 470.121 143.117 470.121 143.95V153.9ZM485.281 142.1C486.747 140.4 488.164 139.3 489.531 138.8C490.931 138.3 492.247 138.05 493.481 138.05C494.347 138.05 495.147 138.2 495.881 138.5C496.614 138.767 497.197 139.183 497.631 139.75C498.197 140.517 498.564 141.483 498.731 142.65C498.897 143.817 498.981 145.083 498.981 146.45V153.9C498.981 155.267 499.064 156.267 499.231 156.9C499.397 157.5 499.714 157.883 500.181 158.05C500.681 158.217 501.397 158.35 502.331 158.45C502.464 158.583 502.531 158.867 502.531 159.3C502.531 159.7 502.464 159.967 502.331 160.1C501.597 160.067 500.781 160.033 499.881 160C498.981 160 498.031 160 497.031 160C496.031 160 495.114 160 494.281 160C493.481 160.033 492.697 160.067 491.931 160.1C491.797 159.967 491.731 159.7 491.731 159.3C491.731 158.867 491.797 158.583 491.931 158.45C492.797 158.35 493.447 158.217 493.881 158.05C494.347 157.883 494.647 157.5 494.781 156.9C494.947 156.267 495.031 155.267 495.031 153.9V146.3C495.031 145.533 494.997 144.833 494.931 144.2C494.864 143.533 494.697 142.95 494.431 142.45C494.131 141.883 493.731 141.467 493.231 141.2C492.764 140.9 492.281 140.75 491.781 140.75C490.814 140.75 489.797 141 488.731 141.5C487.664 141.967 486.647 142.667 485.681 143.6C485.481 143.833 485.281 144.117 485.081 144.45C484.914 144.75 484.831 145.167 484.831 145.7V153.9C484.831 155.267 484.897 156.267 485.031 156.9C485.197 157.5 485.497 157.883 485.931 158.05C486.397 158.217 487.047 158.35 487.881 158.45C488.014 158.583 488.081 158.867 488.081 159.3C488.081 159.7 488.014 159.967 487.881 160.1C487.147 160.067 486.381 160.033 485.581 160C484.781 160 483.881 160 482.881 160C481.881 160 480.897 160 479.931 160C478.997 160.033 478.147 160.067 477.381 160.1C477.247 159.967 477.181 159.7 477.181 159.3C477.181 158.867 477.247 158.583 477.381 158.45C478.381 158.35 479.131 158.217 479.631 158.05C480.131 157.883 480.464 157.5 480.631 156.9C480.797 156.267 480.881 155.267 480.881 153.9V144.15C480.881 143.183 480.797 142.483 480.631 142.05C480.464 141.583 480.147 141.267 479.681 141.1C479.214 140.933 478.531 140.817 477.631 140.75C477.597 140.583 477.564 140.35 477.531 140.05C477.497 139.717 477.497 139.483 477.531 139.35C479.264 139.117 480.547 138.883 481.381 138.65C482.214 138.417 482.981 138.167 483.681 137.9C483.881 137.9 484.014 137.95 484.081 138.05C484.181 138.117 484.247 138.2 484.281 138.3C484.414 138.567 484.497 139.1 484.531 139.9C484.597 140.7 484.647 141.433 484.681 142.1C484.681 142.333 484.747 142.433 484.881 142.4C485.014 142.367 485.147 142.267 485.281 142.1ZM513.901 157.2C514.501 157.2 515.301 157.167 516.301 157.1C517.301 157 518.068 156.95 518.601 156.95C519.234 156.95 520.001 156.983 520.901 157.05C521.801 157.083 522.701 157.217 523.601 157.45C524.501 157.683 525.268 158.067 525.901 158.6C527.368 159.767 528.101 161.117 528.101 162.65C528.101 163.983 527.684 165.183 526.851 166.25C526.051 167.35 524.968 168.267 523.601 169C522.234 169.733 520.718 170.3 519.051 170.7C517.418 171.1 515.768 171.3 514.101 171.3C512.801 171.3 511.534 171.117 510.301 170.75C509.101 170.417 508.101 169.833 507.301 169C506.501 168.167 506.101 167.033 506.101 165.6C506.101 164.533 506.451 163.45 507.151 162.35C507.851 161.283 508.868 160.35 510.201 159.55C509.568 159.217 509.018 158.717 508.551 158.05C508.118 157.383 507.901 156.6 507.901 155.7C507.901 154.833 508.084 153.933 508.451 153C508.851 152.033 509.401 151.25 510.101 150.65C509.401 149.983 508.784 149.217 508.251 148.35C507.751 147.483 507.501 146.383 507.501 145.05C507.501 143.517 507.901 142.183 508.701 141.05C509.501 139.917 510.551 139.033 511.851 138.4C513.184 137.767 514.601 137.45 516.101 137.45C517.568 137.45 518.718 137.633 519.551 138C520.418 138.367 521.001 138.65 521.301 138.85C521.968 137.983 522.801 137.35 523.801 136.95C524.834 136.517 525.668 136.3 526.301 136.3C526.968 136.3 527.518 136.483 527.951 136.85C528.384 137.183 528.601 137.617 528.601 138.15C528.601 138.65 528.401 139.1 528.001 139.5C527.634 139.867 527.201 140.05 526.701 140.05C526.468 140.05 526.201 139.95 525.901 139.75C525.601 139.55 525.401 139.35 525.301 139.15C525.034 138.75 524.701 138.55 524.301 138.55C524.001 138.55 523.634 138.683 523.201 138.95C522.801 139.217 522.501 139.483 522.301 139.75C523.068 140.483 523.618 141.25 523.951 142.05C524.318 142.817 524.501 143.783 524.501 144.95C524.501 146.583 524.101 147.967 523.301 149.1C522.501 150.233 521.451 151.1 520.151 151.7C518.851 152.3 517.468 152.6 516.001 152.6C514.201 152.6 512.701 152.25 511.501 151.55C510.901 152.383 510.601 153.35 510.601 154.45C510.601 155.517 510.968 156.25 511.701 156.65C512.434 157.017 513.168 157.2 513.901 157.2ZM520.501 145.45C520.501 143.383 520.084 141.8 519.251 140.7C518.418 139.567 517.201 139 515.601 139C512.934 139 511.601 140.767 511.601 144.3C511.601 145.367 511.701 146.417 511.901 147.45C512.101 148.483 512.534 149.35 513.201 150.05C513.868 150.717 514.901 151.05 516.301 151.05C516.901 151.05 517.518 150.917 518.151 150.65C518.818 150.35 519.368 149.8 519.801 149C520.268 148.167 520.501 146.983 520.501 145.45ZM511.101 159.9C510.401 160.767 509.968 161.55 509.801 162.25C509.668 162.95 509.601 163.733 509.601 164.6C509.601 165.433 509.818 166.15 510.251 166.75C510.718 167.383 511.268 167.9 511.901 168.3C512.568 168.7 513.234 168.983 513.901 169.15C514.601 169.35 515.168 169.45 515.601 169.45C517.101 169.45 518.601 169.233 520.101 168.8C521.634 168.4 522.901 167.783 523.901 166.95C524.901 166.15 525.401 165.15 525.401 163.95C525.401 163.283 525.218 162.733 524.851 162.3C524.484 161.867 523.801 161.383 522.801 160.85C522.101 160.45 521.234 160.2 520.201 160.1C519.201 160.033 518.068 160 516.801 160C516.468 160 515.968 160.017 515.301 160.05C514.634 160.117 513.901 160.15 513.101 160.15C512.434 160.15 511.768 160.067 511.101 159.9Z" fill="black"/>
<path d="M1.19238 113H530.192" stroke="black" stroke-width="3"/>
</svg>
