<svg width="583" height="177" viewBox="0 0 583 177" fill="none" xmlns="http://www.w3.org/2000/svg">
<path d="M50.4004 77.488L47.5204 94H0.000382803L0.480383 91.312L5.85638 90.64C6.94438 90.512 7.61638 90.256 7.87238 89.872C8.12838 89.424 8.44838 88.112 8.83238 85.936L17.4724 36.784C17.8564 34.608 17.9844 33.328 17.8564 32.944C17.7284 32.496 17.1844 32.208 16.2244 32.08L11.0404 31.408L11.5204 28.72H58.0804L55.2004 45.232H52.5124L51.2644 34.576C51.2004 33.808 51.0724 33.264 50.8804 32.944C50.7524 32.56 50.3684 32.336 49.7284 32.272C49.1524 32.144 48.0964 32.08 46.5604 32.08H29.8564L25.0564 59.344H36.0004C37.5364 59.344 38.6244 59.312 39.2644 59.248C39.9044 59.12 40.3524 58.896 40.6084 58.576C40.9284 58.192 41.2484 57.616 41.5684 56.848L45.1204 49.072H47.8084L43.5844 72.976H40.8964L40.1284 65.2C40.0644 64.048 39.8084 63.344 39.3604 63.088C38.9124 62.832 37.5684 62.704 35.3284 62.704H24.4804L19.4884 90.64H37.1524C38.6884 90.64 39.7764 90.608 40.4164 90.544C41.0564 90.416 41.5364 90.192 41.8564 89.872C42.1764 89.488 42.4964 88.912 42.8164 88.144L47.7124 77.488H50.4004ZM104.116 94.48C101.3 94.48 99.0281 93.68 97.3001 92.08C95.6361 90.416 94.7401 88.08 94.6121 85.072C92.0521 88.464 89.3641 90.96 86.5481 92.56C83.7321 94.16 80.8201 94.96 77.8121 94.96C73.4601 94.96 70.1961 93.456 68.0201 90.448C65.9081 87.376 65.3321 83.12 66.2921 77.68L70.5161 53.392C70.9001 51.216 71.0281 49.936 70.9001 49.552C70.7721 49.104 70.1961 48.816 69.1721 48.688L63.9881 48.016L64.4681 45.328H82.9961L77.3321 77.584C76.5641 82 76.5321 85.232 77.2361 87.28C77.9401 89.264 79.1881 90.256 80.9801 90.256C82.1321 90.256 83.4761 89.904 85.0121 89.2C86.6121 88.432 88.3081 87.12 90.1001 85.264C91.9561 83.344 93.7801 80.624 95.5721 77.104L101.236 45.328H112.276L106.228 79.6C105.396 84.08 105.012 87.056 105.076 88.528C105.14 89.936 105.652 90.64 106.612 90.64C107.508 90.64 108.468 90.128 109.492 89.104C110.516 88.08 111.444 86.352 112.276 83.92L116.02 86.032C114.612 88.976 112.916 91.12 110.932 92.464C108.948 93.808 106.676 94.48 104.116 94.48ZM176.918 86.032C175.51 88.976 173.814 91.12 171.83 92.464C169.846 93.808 167.574 94.48 165.014 94.48C161.494 94.48 158.87 93.264 157.142 90.832C155.414 88.336 154.998 84.848 155.894 80.368L159.638 61.744C160.534 57.328 160.566 54.128 159.734 52.144C158.902 50.096 157.494 49.072 155.51 49.072C154.358 49.072 152.95 49.456 151.286 50.224C149.622 50.928 147.83 52.24 145.91 54.16C144.054 56.08 142.198 58.832 140.342 62.416L134.774 94H123.734L130.838 53.392C131.222 51.216 131.35 49.936 131.222 49.552C131.094 49.104 130.55 48.816 129.59 48.688L124.406 48.016L124.886 45.328H142.742L141.11 54.736C143.734 51.152 146.518 48.528 149.462 46.864C152.47 45.2 155.542 44.368 158.678 44.368C163.222 44.368 166.614 45.872 168.854 48.88C171.158 51.888 171.766 56.144 170.678 61.648L167.126 79.6C166.294 84.016 165.878 86.96 165.878 88.432C165.942 89.904 166.486 90.64 167.51 90.64C168.406 90.64 169.366 90.128 170.39 89.104C171.414 88.08 172.342 86.352 173.174 83.92L176.918 86.032ZM238.77 91.312L238.29 94H219.378L219.858 91.312L225.234 90.64C225.938 90.512 226.482 90.384 226.866 90.256C227.25 90.064 227.602 89.648 227.922 89.008C228.306 88.368 228.85 87.344 229.554 85.936L257.97 28.72H266.226L274.578 85.936C274.898 88.112 275.186 89.424 275.442 89.872C275.698 90.256 276.274 90.512 277.17 90.64L282.354 91.312L281.874 94H255.762L256.242 91.312L261.618 90.64C262.706 90.512 263.314 90.256 263.442 89.872C263.634 89.424 263.57 88.112 263.25 85.936L261.618 74.032H239.634L233.682 85.936C232.658 88.112 232.146 89.424 232.146 89.872C232.146 90.256 232.626 90.512 233.586 90.64L238.77 91.312ZM241.266 70.672H261.234L257.01 39.184L241.266 70.672ZM357.996 91.312L357.516 94H331.212L331.692 91.312L337.068 90.64C338.156 90.512 338.828 90.256 339.084 89.872C339.34 89.424 339.66 88.112 340.044 85.936L348.684 36.784C349.068 34.608 349.196 33.328 349.068 32.944C348.94 32.496 348.396 32.208 347.436 32.08L342.252 31.408L342.732 28.72H369.036L368.556 31.408L363.18 32.08C362.156 32.208 361.484 32.496 361.164 32.944C360.908 33.328 360.588 34.608 360.204 36.784L356.268 59.344H381.516L385.452 36.784C385.836 34.608 385.964 33.328 385.836 32.944C385.708 32.496 385.164 32.208 384.204 32.08L379.02 31.408L379.5 28.72H405.804L405.324 31.408L399.948 32.08C398.924 32.208 398.252 32.496 397.932 32.944C397.676 33.328 397.356 34.608 396.972 36.784L388.332 85.936C387.948 88.112 387.82 89.424 387.948 89.872C388.076 90.256 388.62 90.512 389.58 90.64L394.764 91.312L394.284 94H367.98L368.46 91.312L373.836 90.64C374.924 90.512 375.596 90.256 375.852 89.872C376.108 89.424 376.428 88.112 376.812 85.936L380.844 62.704H355.692L351.564 85.936C351.18 88.112 351.052 89.424 351.18 89.872C351.308 90.256 351.852 90.512 352.812 90.64L357.996 91.312ZM446.619 94.48C443.995 94.48 441.851 93.776 440.187 92.368C438.587 90.896 437.627 88.816 437.307 86.128C435.259 89.52 433.019 91.856 430.587 93.136C428.155 94.352 425.659 94.96 423.099 94.96C419.195 94.96 416.027 93.776 413.595 91.408C411.227 89.04 409.627 85.84 408.795 81.808C408.027 77.776 408.091 73.328 408.987 68.464L409.371 66.352C410.267 61.552 411.835 57.52 414.075 54.256C416.315 50.992 418.971 48.528 422.043 46.864C425.179 45.2 428.475 44.368 431.931 44.368C436.859 44.368 440.603 46.032 443.163 49.36C444.635 48.976 446.139 48.464 447.675 47.824C449.275 47.184 450.779 46.352 452.187 45.328H454.779L448.731 79.6C447.899 84.08 447.515 87.056 447.579 88.528C447.643 89.936 448.155 90.64 449.115 90.64C450.011 90.64 450.971 90.128 451.995 89.104C453.019 88.08 453.947 86.352 454.779 83.92L458.523 86.032C457.115 88.976 455.419 91.12 453.435 92.464C451.451 93.808 449.179 94.48 446.619 94.48ZM420.507 70.192C419.291 77.232 419.195 82.48 420.219 85.936C421.307 89.328 423.067 91.024 425.499 91.024C426.395 91.024 427.483 90.736 428.763 90.16C430.107 89.52 431.547 88.304 433.083 86.512C434.683 84.656 436.283 81.936 437.883 78.352L442.107 54.16C441.083 51.92 439.739 50.384 438.075 49.552C436.475 48.656 434.843 48.208 433.179 48.208C429.851 48.208 427.259 49.712 425.403 52.72C423.611 55.728 422.267 59.888 421.371 65.2L420.507 70.192ZM504.115 94.48C501.299 94.48 499.059 93.648 497.395 91.984C495.731 90.32 494.835 87.984 494.707 84.976C492.531 88.752 490.227 91.376 487.795 92.848C485.427 94.256 482.931 94.96 480.307 94.96C476.467 94.96 473.331 93.776 470.899 91.408C468.531 89.04 466.931 85.84 466.099 81.808C465.331 77.776 465.395 73.328 466.291 68.464L466.675 66.352C467.571 61.552 469.139 57.52 471.379 54.256C473.619 50.992 476.307 48.528 479.443 46.864C482.579 45.2 485.875 44.368 489.331 44.368C494.131 44.368 497.843 45.936 500.467 49.072L503.635 31.024C504.019 28.848 504.147 27.568 504.019 27.184C503.891 26.736 503.347 26.448 502.387 26.32L497.299 25.648L497.683 22.96H516.211L506.227 79.6C505.395 84.08 505.011 87.056 505.075 88.528C505.139 89.936 505.651 90.64 506.611 90.64C507.507 90.64 508.467 90.128 509.491 89.104C510.515 88.08 511.443 86.352 512.275 83.92L516.019 86.032C514.611 88.976 512.915 91.12 510.931 92.464C508.947 93.808 506.675 94.48 504.115 94.48ZM477.811 70.192C476.595 77.232 476.499 82.48 477.523 85.936C478.611 89.328 480.403 91.024 482.899 91.024C483.795 91.024 484.915 90.64 486.259 89.872C487.603 89.104 489.075 87.6 490.675 85.36C492.339 83.12 494.067 79.856 495.859 75.568L499.603 54.16C498.515 51.92 497.139 50.384 495.475 49.552C493.875 48.656 492.243 48.208 490.579 48.208C487.187 48.208 484.563 49.712 482.707 52.72C480.915 55.728 479.571 59.888 478.675 65.2L477.811 70.192ZM561.508 94.48C558.884 94.48 556.74 93.776 555.076 92.368C553.476 90.896 552.516 88.816 552.196 86.128C550.148 89.52 547.908 91.856 545.476 93.136C543.044 94.352 540.548 94.96 537.988 94.96C534.084 94.96 530.916 93.776 528.484 91.408C526.116 89.04 524.516 85.84 523.684 81.808C522.916 77.776 522.98 73.328 523.876 68.464L524.26 66.352C525.156 61.552 526.724 57.52 528.964 54.256C531.204 50.992 533.86 48.528 536.932 46.864C540.068 45.2 543.364 44.368 546.82 44.368C551.748 44.368 555.492 46.032 558.052 49.36C559.524 48.976 561.028 48.464 562.564 47.824C564.164 47.184 565.668 46.352 567.076 45.328H569.668L563.62 79.6C562.788 84.08 562.404 87.056 562.468 88.528C562.532 89.936 563.044 90.64 564.004 90.64C564.9 90.64 565.86 90.128 566.884 89.104C567.908 88.08 568.836 86.352 569.668 83.92L573.412 86.032C572.004 88.976 570.308 91.12 568.324 92.464C566.34 93.808 564.068 94.48 561.508 94.48ZM535.396 70.192C534.18 77.232 534.084 82.48 535.108 85.936C536.196 89.328 537.956 91.024 540.388 91.024C541.284 91.024 542.372 90.736 543.652 90.16C544.996 89.52 546.436 88.304 547.972 86.512C549.572 84.656 551.172 81.936 552.772 78.352L556.996 54.16C555.972 51.92 554.628 50.384 552.964 49.552C551.364 48.656 549.732 48.208 548.068 48.208C544.74 48.208 542.148 49.712 540.292 52.72C538.5 55.728 537.156 59.888 536.26 65.2L535.396 70.192Z" fill="black"/>
<path d="M237.464 162V126.258H248.743C250.582 126.258 252.389 126.364 254.163 126.575C255.937 126.771 257.532 127.169 258.948 127.771C260.381 128.357 261.52 129.228 262.366 130.384C263.229 131.523 263.66 133.029 263.66 134.9C263.676 136.186 263.562 137.399 263.318 138.538C263.09 139.661 262.594 140.621 261.829 141.419C261.08 142.2 259.925 142.737 258.362 143.03C260.088 143.291 261.414 143.836 262.342 144.666C263.286 145.48 263.937 146.513 264.295 147.767C264.669 149.004 264.856 150.387 264.856 151.917C264.856 154.586 264.214 156.653 262.928 158.118C261.658 159.567 259.762 160.576 257.239 161.146C254.716 161.715 251.591 162 247.864 162H237.464ZM243.104 157.801H248.401C249.752 157.801 251.071 157.76 252.356 157.679C253.642 157.597 254.806 157.378 255.848 157.02C256.889 156.661 257.711 156.067 258.313 155.237C258.932 154.407 259.241 153.243 259.241 151.746C259.241 149.744 258.899 148.279 258.216 147.352C257.549 146.408 256.515 145.797 255.115 145.521C253.732 145.244 251.958 145.105 249.793 145.105H243.104V157.801ZM243.104 141.004H250.062C252.568 141.004 254.424 140.833 255.628 140.491C256.849 140.133 257.63 139.507 257.972 138.611C258.313 137.7 258.427 136.414 258.313 134.754C258.232 133.647 257.964 132.801 257.508 132.215C257.068 131.613 256.45 131.189 255.652 130.945C254.855 130.701 253.886 130.563 252.747 130.53C251.624 130.481 250.346 130.457 248.914 130.457H243.104V141.004ZM270.264 162V137.024H275.708V140.76C276.603 139.327 277.653 138.294 278.857 137.659C280.078 137.024 281.478 136.707 283.057 136.707V141.517C281.283 141.517 279.85 141.907 278.76 142.688C277.686 143.453 276.904 144.479 276.416 145.765C275.944 147.034 275.708 148.426 275.708 149.939V162H270.264ZM297.204 162.586C293.672 162.586 290.881 161.487 288.83 159.29C286.796 157.076 285.778 153.813 285.778 149.5C285.778 145.171 286.796 141.915 288.83 139.734C290.881 137.537 293.672 136.438 297.204 136.438C300.736 136.438 303.519 137.537 305.554 139.734C307.588 141.915 308.605 145.171 308.605 149.5C308.605 153.813 307.588 157.076 305.554 159.29C303.519 161.487 300.736 162.586 297.204 162.586ZM297.204 158.753C298.848 158.753 300.085 158.297 300.915 157.386C301.761 156.474 302.331 155.311 302.624 153.895C302.917 152.479 303.063 151.014 303.063 149.5C303.063 147.97 302.917 146.505 302.624 145.105C302.331 143.689 301.761 142.534 300.915 141.639C300.085 140.727 298.848 140.271 297.204 140.271C295.56 140.271 294.315 140.727 293.469 141.639C292.639 142.534 292.077 143.689 291.784 145.105C291.491 146.505 291.345 147.97 291.345 149.5C291.345 151.014 291.491 152.479 291.784 153.895C292.077 155.311 292.639 156.474 293.469 157.386C294.315 158.297 295.56 158.753 297.204 158.753ZM319.359 162L310.937 137.024H316.601L321.947 155.042L328.271 137.024H331.103L337.304 155.042L342.724 137.024H348.07L339.281 162H334.74L329.467 146.448L323.925 162H319.359ZM391.746 162.903L370.384 138.636C369.505 137.643 368.911 136.658 368.602 135.682C368.292 134.705 368.178 133.631 368.26 132.459C368.357 130.978 368.813 129.733 369.627 128.724C370.457 127.698 371.515 126.925 372.801 126.404C374.103 125.867 375.503 125.599 377 125.599C378.53 125.599 379.946 125.859 381.248 126.38C382.55 126.901 383.6 127.674 384.397 128.699C385.195 129.708 385.594 130.953 385.594 132.435C385.594 133.476 385.472 134.404 385.228 135.218C385 136.032 384.552 136.805 383.885 137.537C383.234 138.27 382.29 139.026 381.053 139.808C379.816 140.573 378.196 141.435 376.194 142.396C374.078 143.405 372.459 144.414 371.336 145.423C370.213 146.416 369.456 147.433 369.065 148.475C368.675 149.5 368.504 150.574 368.553 151.697C368.602 152.918 368.862 154.008 369.334 154.969C369.822 155.929 370.571 156.694 371.58 157.264C372.605 157.817 373.956 158.094 375.633 158.094C376.984 158.094 378.318 157.866 379.637 157.41C380.955 156.954 382.192 156.157 383.348 155.018C384.52 153.862 385.545 152.267 386.424 150.232C387.319 148.182 388.011 145.569 388.499 142.396L393.162 143.055C392.674 146.456 391.933 149.321 390.94 151.648C389.964 153.976 388.825 155.864 387.522 157.312C386.22 158.761 384.837 159.868 383.372 160.633C381.907 161.398 380.434 161.919 378.953 162.195C377.488 162.472 376.097 162.61 374.778 162.61C372.418 162.61 370.343 162.122 368.553 161.146C366.762 160.169 365.371 158.859 364.378 157.215C363.401 155.555 362.929 153.715 362.962 151.697C363.027 148.686 363.873 146.22 365.501 144.3C367.145 142.379 369.749 140.727 373.313 139.344C375.169 138.628 376.609 137.944 377.635 137.293C378.66 136.626 379.393 136.007 379.832 135.438C380.271 134.852 380.532 134.323 380.613 133.851C380.695 133.362 380.711 132.939 380.662 132.581C380.581 132.011 380.247 131.458 379.661 130.921C379.075 130.368 378.229 130.091 377.122 130.091C375.934 130.091 375.039 130.351 374.437 130.872C373.851 131.393 373.517 131.938 373.436 132.508C373.322 133.322 373.411 134.135 373.704 134.949C373.997 135.747 374.493 136.528 375.193 137.293L395.237 159.778L391.746 162.903ZM418.259 162L408.078 126.258H413.962L420.676 152.991L429.538 126.258H433.493L441.086 153.675L448.703 126.258H454.05L443.161 162H438.327L431.125 137.122L422.604 162H418.259ZM463.974 162.586C462.476 162.586 461.125 162.334 459.921 161.829C458.733 161.325 457.797 160.584 457.113 159.607C456.43 158.615 456.088 157.402 456.088 155.97C456.088 154.407 456.397 153.146 457.016 152.186C457.634 151.225 458.489 150.477 459.579 149.939C460.686 149.386 461.972 148.955 463.437 148.646C464.901 148.32 466.48 148.027 468.173 147.767L471.127 147.278V146.351C471.127 144.951 471.021 143.812 470.81 142.933C470.598 142.037 470.159 141.378 469.491 140.955C468.824 140.516 467.799 140.296 466.415 140.296C464.625 140.296 463.184 140.532 462.094 141.004C461.02 141.476 459.962 142.054 458.92 142.737C458.92 142.737 458.814 142.575 458.603 142.249C458.391 141.924 458.139 141.549 457.846 141.126C457.569 140.703 457.325 140.328 457.113 140.003C456.902 139.677 456.796 139.515 456.796 139.515C458.196 138.506 459.636 137.741 461.117 137.22C462.598 136.699 464.429 136.438 466.61 136.438C469.589 136.438 471.99 137.155 473.812 138.587C475.635 140.003 476.547 142.265 476.547 145.374V162H471.884L471.444 159.119C470.631 160.258 469.573 161.121 468.271 161.707C466.985 162.293 465.552 162.586 463.974 162.586ZM464.657 158.753C466.138 158.753 467.375 158.436 468.368 157.801C469.377 157.166 470.297 156.385 471.127 155.457V150.672L467.855 151.307C466.065 151.665 464.674 151.998 463.681 152.308C462.704 152.617 462.029 153.016 461.654 153.504C461.28 153.992 461.109 154.676 461.142 155.555C461.174 156.482 461.418 157.247 461.874 157.85C462.33 158.452 463.257 158.753 464.657 158.753ZM479.537 162L488.595 149.622L479.366 137.024H485.348L491.793 145.838L497.896 137.024H503.634L494.576 149.598L503.658 162H497.677L491.402 153.431L485.274 162H479.537ZM507.332 162V137.024H512.752V162H507.332ZM506.844 131.873V125.916H512.435V131.873H506.844ZM518.818 162V137.024H524.263V140.076C525.109 138.921 526.159 138.025 527.412 137.391C528.682 136.756 530.203 136.438 531.978 136.438C533.947 136.438 535.526 136.772 536.714 137.439C537.902 138.09 538.797 138.961 539.399 140.052C540.018 141.126 540.425 142.314 540.62 143.616C540.832 144.902 540.938 146.172 540.938 147.425V162H535.518V147.449C535.518 145.04 535.184 143.242 534.517 142.054C533.866 140.866 532.661 140.271 530.903 140.271C529.585 140.271 528.486 140.573 527.607 141.175C526.745 141.761 526.069 142.55 525.581 143.543C525.093 144.52 524.743 145.594 524.531 146.766C524.336 147.938 524.246 149.109 524.263 150.281V162H518.818ZM558.063 173.792C555.801 173.792 553.758 173.344 551.936 172.449C550.113 171.57 548.721 170.529 547.761 169.324L550.69 166.297C551.439 167.241 552.383 168.055 553.522 168.738C554.678 169.422 556.224 169.747 558.161 169.715C560.684 169.682 562.368 168.925 563.215 167.444C564.077 165.979 564.509 163.945 564.509 161.341V159.803C563.695 160.714 562.694 161.406 561.506 161.878C560.334 162.35 559.024 162.586 557.575 162.586C555.248 162.586 553.246 162.065 551.569 161.023C549.893 159.965 548.607 158.436 547.712 156.434C546.817 154.432 546.369 152.023 546.369 149.207C546.369 146.424 546.849 144.088 547.81 142.2C548.786 140.296 550.113 138.864 551.789 137.903C553.482 136.927 555.402 136.438 557.551 136.438C559.211 136.438 560.643 136.797 561.848 137.513C563.052 138.229 564.037 139.14 564.802 140.247L565.314 137.024H569.929V161.463C569.929 164.441 569.424 166.834 568.415 168.641C567.406 170.447 566.006 171.757 564.216 172.571C562.442 173.385 560.391 173.792 558.063 173.792ZM557.917 158.753C559.691 158.753 561.05 158.411 561.994 157.728C562.954 157.044 563.614 156.076 563.972 154.822C564.346 153.553 564.533 152.072 564.533 150.379C564.533 148.084 564.338 146.261 563.947 144.91C563.557 143.559 563.036 142.55 562.385 141.883C561.734 141.215 561.018 140.784 560.236 140.589C559.455 140.377 558.674 140.271 557.893 140.271C555.972 140.271 554.483 141.061 553.425 142.64C552.367 144.218 551.846 146.432 551.862 149.28C551.895 152.454 552.391 154.83 553.352 156.409C554.312 157.972 555.834 158.753 557.917 158.753Z" fill="black"/>
<path d="M1.19238 113H575.192" stroke="black" stroke-width="3"/>
</svg>
